<svg version="1.0" xmlns="http://www.w3.org/2000/svg" width="1365.333" height="1365.333" viewBox="0 0 1024 1024"><path d="M0 512v512h1024V0H0v512zm386-355.5v4.5h35v8.9l15.3.3 15.2.3-.3 6.7-.3 6.8H473v16h15v15h14v15h11v17h13v16.8l7.8-.2 7.7-.1.3-8.3.3-8.2H554v-17h12v-15h14v-15h15v-16h21v-14h31v-9.5l17 .3 17 .3V152h73v9h26.8l.6 4.5.7 4.5H826v14h24v16h18v30h-14v-16h-17v-15h-11.5c-8.5 0-11.5-.3-11.6-1.3-.1-.6-.2-1.9-.3-2.7-.2-.8-.3-3.4-.4-5.8l-.2-4.2h-46v-11h-24.9l-.3-3.8-.3-3.7-24.5.3-24.5.3-.3 3.4-.3 3.5H662v11H631.3l-.7 3.1c-.3 1.7-.6 4.9-.6 7v3.9h-22v15h-16v16h-12v15h-12v17h-13.9l-.3 8.2-.3 8.3-6.7.3-6.8.3V302h-13V278.3l-6.7.1-6.8.1V262H500v-17h-13.3l.6-7.5.7-7.5h-13.3l.7-8 .6-8h-16v-15h-22l-.1-5.8c-.1-3.1-.1-6.3 0-7 .1-.9-3.7-1.2-16.4-1.2H405v-11h-28.9l-.3-3.6-.3-3.5-25.2-.2-25.2-.2-.3 3.5-.3 3.5-14.7.3-14.8.3V185h-38v14h-26.9l-.3 7.2-.3 7.3-7.1.3-7.2.3-.6 3.7c-.3 2-.6 5.6-.6 7.9v4.3h-15v-30h19v-16h13.4c13.3 0 13.5 0 13.4-2.3-.1-1.2-.1-4.3 0-7l.2-4.7h34v-9h31v-9h76v4.5zm151.8 9 .3 7.1 6.8-.4 6.8-.4.6 3.4c.3 1.8.3 4.6 0 6.1-.5 2.5-.9 2.7-5.7 2.9-2.8 0-5.9.1-6.8 0-1.5-.2-1.8.7-1.8 6.2v6.3l-3.7.7c-8.4 1.3-8.3 1.4-8.3-6.4v-7h-15v-11h15v-6.9c0-7.8.3-8.1 7-7.8l4.5.2.3 7zM387 196v7.1l19.3-.1 19.2-.2.3 6.6.3 6.6H403v36h-17v-48h-36l-.1 25.2c0 13.9-.2 24.8-.5 24.3-.2-.6-3.8-.9-8.4-.8l-8 .3v-49l-17.7-.2-17.8-.3-.3-7.3-.3-7.2H387v7zm378 0v7.1l17.4-.3 17.5-.3.5 2.9c.3 1.6.6 4.6.6 6.7v3.9h-19.5l.3 18 .3 18H765v-48h-29.5l.3 23.9.4 23.9-8.7.4c-4.8.2-8.9.1-9.1-.1-.2-.2-.4-11.1-.4-24.2v-23.8l-17.5-.3-17.5-.3V252h-18v-36h-23v-2.8c0-1.5.3-4.4.6-6.5l.7-3.7H681v-14h84v7zm-468 31.5V252h-16l-.2-13.3c0-7.2 0-15.3.1-18l.2-4.7H261v-5.8c0-3.2.3-6.2.7-6.5.3-.4 8.4-.7 18-.7H297v24.5zm-36.8-4.5c-.1 4.1-.5 8.6-.8 10-.6 2.3-.7 2.4-1.4.5-.6-1.3-.9-1.5-.9-.5-.1 1.2-1.1 1.4-4.8 1.1-4.4-.4-4.6-.5-1.8-1.2l3-.7-2.7-.1c-2.2-.1-2.8-.6-2.8-2.3 0-3.6-1-1.4-1.2 2.6-.1 2.3-.6 3.6-1.5 3.6-.7 0-1.2-.3-1.1-.8.1-.4-.1-4.6-.6-9.5-.4-4.8-.4-9.2-.1-9.7.4-.7 4-1 8.8-.8l8.2.3-.3 7.5zm189.8-4.3c0 3.2-.2 3.5-1.3 1.9-1.2-1.6-1.3-1.6-1.4.5-.3 3.4-2 3.9-11.3 3.7l-8.5-.3-.3-4.8-.3-4.7H450v3.7zm190.8 1-.3 4.8-9.3.5-9.2.5v-3.7c0-2-.3-4.3-.6-5.2-.5-1.4.7-1.6 9.5-1.6h10.2l-.3 4.7zm190.2.3v5l-7.7.1c-4.3 0-7.2.3-6.5.6 1.5.6 1.6 4.3.2 4.3-1.2 0-1 3.2.2 4 .4.3-.9.6-3 .6-2 .1-4.7.4-5.8.8-2.4.8-3.2-.6-4.4-7.9l-.7-4-.2 4.5c-.3 3.8-.4 4.1-1.1 2-1-3.1-1.2-13.4-.3-14.3.3-.4 7.1-.7 15-.7H831v5zm-632.2 17.4c.2 3.2-.1 6.3-.7 6.9-.5.5-3.9 1.2-7.5 1.4l-6.6.6V283h-11.2l.7 19.9.8 19.9-3.1.7c-1.7.3-5.7.5-8.9.4l-5.8-.3-.3 62.7-.2 62.7h17v58h10.9l.3 15.7.3 15.8 7.3.3 7.2.3v12.4c0 6.8-.3 13-.6 13.9-.5 1.3-2.2 1.6-8 1.6H183v-28h-14v-15.4c0-17.1.2-16.6-7.1-16.6H158v-46h-16V310.1l8.3-.3 8.2-.3-.3-12.6c-.3-14.1-.5-13.9 7.5-13.9h3.3l-.7-26-.6-26.1 15.4.3 15.4.3.3 5.9zm698.3 19.8-.3 25.8h11.1l.3 13.2.3 13.3 7.8.3 7.7.3V461h-15v46l-4.2.2c-2.4 0-5.1.1-6 0-1.6-.2-1.8 1.2-1.8 15.8v16h-13v28h-5.9c-7.2 0-9.1.6-9.1 3.1 0 1.6.8 1.9 4.8 1.9 9.1 0 8.7-.6 8.4 13.5l-.3 12.5h16.8l.7 5.2c.3 2.9.6 9.7.6 15v9.8h16v19h2.8c6.8 0 7.2.6 7.2 8.6v7.4h10v17h15v45.4c0 41.9-.1 45.4-1.7 46-1 .4-6.7.6-12.8.5l-11-.2-.3 7.7-.3 7.6h-12.4c-9.3 0-12.5.3-12.5 1.2-.2 8.6-.7 15.8-1 16.2-.3.2-7.3.6-15.5.8l-15 .3-.3 7.2-.3 7.2-10.2.3-10.2.3-.3 8.2-.3 8.3h-26.8l-.3 8.7-.3 8.8-14.7.3-14.8.3v5.2c0 2.8-.4 5.7-.8 6.4-.5.9-5 1.3-14.2 1.5l-13.5.3-.3 6.2-.3 6.3H743.2l-.6 4.5-.7 4.5H720v14.9l-18.5.3c-10.2.2-19 .1-19.5 0-.6-.2-1-3.9-1-8.3V889h38v-14.9l11.3-.3 11.2-.3.3-3.3.3-3.2H759v-14h28v-15h26v-17h24.8l.6-3.1c.3-1.7.6-4.9.6-7v-3.8l12.8-.3 12.7-.3.3-4.3.3-4.2H882v-12.9l7 .6 7 .6V771h12.6c12.1 0 12.5-.1 11.9-2-.4-1.1-.3-4.5 0-7.5l.7-5.5H936v-62h-16v-32h-17v-23h-18v-26l-7.5-.1c-4.1-.1-8.1-.2-8.7-.3-.9-.1-1.4-2.8-1.6-8.9l-.3-8.7H853v-24.9l3.5-.7c1.9-.3 4.8-.4 6.3-.1 5.8 1.1 6.2.1 6.2-15.8V539h13v-32h12v-58h15V324.1l-7.7-.3-7.8-.3V283h-5.2c-4.3 0-5.3-.3-5.5-1.8 0-.9-.2-9.4-.2-18.7l-.1-17-6.7-.3-6.8-.3v-14l14.3.3 14.2.3-.4 25.7zm-655.3-16.5-.3 7.8-6.7.3c-6.1.3-6.8.1-6.8-1.6 0-1.1-.3-4.7-.6-8.1l-.7-6.1h15.4l-.3 7.7zm562.8-5.9c.1.7 0 .8-.3.2-.2-.5-.9-.8-1.4-.4-.5.3-.9 0-.9-.6 0-1.5 2.3-.7 2.6.8zM468 242.2v6.8h-6c-4 0-6.2-.4-6.5-1.3-.6-1.7-1.3-11.5-.9-11.9.2-.2 3.3-.4 6.9-.3h6.5v6.7zm146-.3c0 3.8-.4 6.1-1.2 6.4-.7.2-3.9.2-7-.1l-5.8-.4V236h14v5.9zm-264.3 19.3c-.2 1.3-.4.5-.4-1.7-.1-2.2.1-3.2.4-2.3.2 1 .2 2.8 0 4zm-5.9 1.5c-1 .2-2.6.2-3.5 0-1-.3-.2-.5 1.7-.5s2.7.2 1.8.5zm383.5 0c-.7.2-2.1.2-3 0-1-.3-.4-.5 1.2-.5 1.7 0 2.4.2 1.8.5zM112 280v7h13v5.4c0 5.2-.1 5.4-3.1 6-1.7.3-4.7.6-6.5.6H112v12h-11.9l-.3-6.3-.3-6.2-6.5-.1-6.5-.1v-10.8l6.8-.3 6.7-.3V273h12v7zm856 0v7h12v5.4c0 5.2-.1 5.4-3.1 6-1.7.3-4.4.6-6 .6-2.7 0-2.9.3-3 4-.1 2.2-.3 4.4-.4 5-.1.5-.3 1.4-.4 2 0 .5-2.6 1-5.6 1H956v-12h-14v-12h14v-14h12v7zm-618 44v29h-21v-45h-27l-.2 22.2-.3 22.3-10.5.3-10.5.2-.3-29-.4-29H350v29zm53.8-21.8.3 6.7 7.2.4 7.2.3-7.7.2-7.8.2v43h-18v-58.1l9.3.3 9.2.3.3 6.7zm279.7 21.5v28.8l-9.3.3-9.2.3V295h18.5v28.7zM783 302v7l6.8.2 6.7.2-6.7.3-6.8.4-.2 21.2-.3 21.2-8.7.3-8.8.3V308h-28l-.2 22.2-.3 22.3-9.2.3-9.3.3V295h65v7zm-128.7 8.7c-1.3.2-3.5.2-5 0-1.6-.2-.5-.4 2.2-.4 2.8 0 4 .2 2.8.4zM248 332v21h-17v-42h17v21zm190.4-.2-.1 20.7-6.6.3-6.7.3V311h13.5l-.1 20.8zm204.6.2v21h-13v-42h13v21zm174-4.6c0 9 .3 18.4.6 21l.7 4.6h-16.8v-42H817v16.4zm-337 12.1V353h-14.5l-.3-13.5-.3-13.5H480v13.5zM601 328c1.8 1.8 2 3.3 2 13.5V353h-15v-27h5.5c4.2 0 6 .5 7.5 2zm2-1c0 .5-.4 1-1 1-.5 0-1-.5-1-1 0-.6.5-1 1-1 .6 0 1 .4 1 1zm-390 12.9c0 12.5-.1 12.9-2.2 13.5-1.3.3-3.3.6-4.5.6-2.1 0-2.2-.4-2.5-13.5l-.3-13.5h9.5v12.9zm643.5-3.7c.4 5.1.5 11.1.3 13.3l-.3 4h-4.7c-2.7 0-4.8-.3-4.8-.8V327h8.8l.7 9.2zm-591.7 60.5c-4.2.2-11.4.2-16 0-4.6-.1-1.1-.3 7.7-.3s12.5.2 8.3.3zm89.5 0c-3.5.2-9.1.2-12.5 0-3.5-.2-.7-.3 6.2-.3s9.7.1 6.3.3zm28 0c-1.3.2-3.3.2-4.5 0-1.3-.2-.3-.4 2.2-.4s3.5.2 2.3.4zm61 0c-7.8.2-20.8.2-29 0-8.1-.1-1.7-.3 14.2-.3 16 0 22.6.2 14.8.3zm184.5 0c-2.7.2-6.9.2-9.5 0-2.7-.2-.5-.3 4.7-.3s7.4.1 4.8.3zm43.5 0c-5.6.2-15.1.2-21 0-5.9-.1-1.3-.3 10.2-.3 11.6 0 16.4.2 10.8.3zm31 0c-1.3.2-3.3.2-4.5 0-1.3-.2-.3-.4 2.2-.4s3.5.2 2.3.4zm32 0c-4 .2-10.7.2-15 0-4.3-.1-1-.3 7.2-.3 8.3 0 11.8.2 7.8.3zm48 0c-1.3.2-3.3.2-4.5 0-1.3-.2-.3-.4 2.2-.4s3.5.2 2.3.4zm46 0c-1.3.2-3.3.2-4.5 0-1.3-.2-.3-.4 2.2-.4s3.5.2 2.3.4zM251.5 403c.4.6.3 1-.2.9-3.2-.5-3 .5.2 1.4 5.4 1.4 219.7 2.1 217.5.7-1-.7.4-.8 4.5-.4 7.1.7 8.5 1.4 2.7 1.4H472v11h11.1l-.3 13.2-.3 13.3-4.7.3-4.8.3v15.2c0 8.4-.3 16.9-.6 18.9-.6 3.7-.8 3.8-5 3.8H463v20h-6.4c-7 0-7.6.6-7.6 7.7v3.3h-53.3l.7-5 .7-5H294v10h-47v-11h-10.2l.7-5.5.6-5.5H230v-14h-8.2l.4-17 .3-17H213v-26h11v-11h-5c-3.7 0-4.8-.3-4.4-1.3.3-1 1.8-1.2 5.4-.7 3.3.4 5 .3 5-.4 0-.6.5-.3 1.1.6 1.4 2.4 14.9 2.7 14.9.3 0-1.8 1.2-1.9 2.8-.3.9.9 1.6.7 3.2-1 2.3-2.4 3.5-2.7 4.5-1.2zm350.7 2.2c-.9.9-1.5.9-2.4-.1-.9-1-.9-1.2-.1-.7.6.3 1.5.1 1.8-.5.4-.5 1-.8 1.3-.4.3.3 0 1.1-.6 1.7zM230 405c0 .5-.7 1-1.5 1s-1.5-.5-1.5-1c0-.6.7-1 1.5-1s1.5.4 1.5 1zm596.5 1.1c1 1 11.8 1.2 15.4.2 2.3-.6 2.3-.7.5-1.4-1.5-.6-1.2-.8 1.4-.8 1.7-.1 3.2.3 3.2.8s1 .7 2.3.4c1.8-.4 1.9-.3.7.6-.8.6-2.3 1.1-3.2 1.1-1.5 0-1.8.9-1.8 5.5v5.5h11.1l-.3 13.2-.3 13.3-4.4.5-4.4.5.2 16.2.2 16.3H839v13.9l-3.7.3-3.8.3-.3 5.2-.3 5.3h-3.8c-4.4 0-5.1 1-5.1 7.1v3.9h-23.9c-13.2 0-24.6-.3-25.5-.6-.9-.3-1.6-1.6-1.6-2.8 0-1.1-.3-3.1-.6-4.4l-.6-2.2H672v4.4c0 3.1-.5 4.6-1.6 5-.9.3-12.6.6-26 .6H620v-11h-14v-20h-10v-39h-10v-26h11v-11l-4.2-.1c-2.4-.1-4.6-.1-5 0-.5 0-.8-.4-.8-1 0-.7.9-.9 2.3-.5 4.8 1.3 31.6 1.9 33 .7 1-.8 2.2-.8 4-.2 1.7.7 37.4 1 96.1 1 80.4.1 93.8-.1 96.3-1.4 2.7-1.4 5.8-1.2 7.8.6zm28.5-.1c0 .5-.4 1-.9 1-.6 0-1.3-.5-1.6-1-.3-.6.1-1 .9-1 .9 0 1.6.4 1.6 1zm-722 99v7h14v12h-14v13h-11.5l.3-6.5.4-6.5H108v-12h6.9c6.9 0 6.9 0 6.8-2.8-.1-1.5 0-4.6.1-7l.2-4.2h11v7zm811 0v7h13v12h-13v13h-12v-12.9l-6.7-.3-6.8-.3v-11l7-.3 7.1-.3-.4-6.9-.4-7H944v7zm-577.5 5.4c.1 0-.1 2.9-.3 6.4l-.4 6.4-7.4-.4-7.4-.3v23.7c0 15.2-.4 23.8-1 23.8s-1-8.7-1-24v-24h-26v-11.9l11.3-.3c9.3-.3 32.1.2 32.2.6zm378.5 5.3v6.3l-8.7.1c-6.3 0-8.2.3-6.5.9 2.2.9 2.2 1 2.2 24v23h-14v-46.9l-7.7-.3-7.8-.3-.3-5.4c-.2-2.9-.1-5.9.1-6.5.3-.8 7-1.1 21.6-1.2H745v6.3zm-516.1.8c-.2 3-.7 4.5-1.6 4.5-.8 0-1.2-.4-.9-.8.3-.5.8-2.3 1.1-4 .4-2.6.2-3.1-1.5-2.9-1.9.1-2.9 1.7-1.1 1.7.5 0 .9 1.1.9 2.4 0 2.2-.4 2.4-3.2 2-1.7-.2-2.5-.2-1.8.2.6.3 1 1 .6 1.5-.3.5.2.9 1.1.9 1 0 1.4-.5 1-1.3-.4-.6-.1-.5.7.3.7.9 2.1 1.4 3.2 1.2 1.1-.2 1.6 0 1.2.7-.4.6-3.4 1.1-6.7 1.1H216v-12h13.1l-.2 4.5zm361.2-2.8c0 1.5.2 1.5.9-.2l.9-2 .1 2c.1 1.5.3 1.7.8.5.9-1.9 3.4-1.9 4.6 0 .8 1.2 1.1 1.1 1.7-.5.5-1.3.8.3.8 4.2l.1 6.3h-5.4c-5.2 0-5.4-.1-6-3.1-.9-4.7-.7-8.9.4-8.9.6 0 1 .8 1.1 1.7zm-121.4 6.5c-.3.8-.6.5-.6-.6-.1-1.1.2-1.7.5-1.3.3.3.4 1.2.1 1.9zm383 2c-.3.8-.6.5-.6-.6-.1-1.1.2-1.7.5-1.3.3.3.4 1.2.1 1.9zM322 526.8v4.7h-16.8l-.4-4.2c-.4-5-.3-5 10-5.2l7.2-.1v4.8zm440.8.2.3 4.5-8.8-.5-8.7-.5.1-3c0-1.7.1-3.5.2-4 0-.6 3.6-1 8.4-1h8.2l.3 4.5zm78.7-4c.3.5.1 1-.4 1-.6 0-1.1 2.1-1.1 4.9 0 2.7-.3 6.3-.6 8l-.6 3.1H823v-10.7l8.3-2.6c4.5-1.4 8.1-3 8-3.6-.4-1.4 1.4-1.4 2.2-.1zm-370.2.7c-.7.2-1.9.2-2.5 0-.7-.3-.2-.5 1.2-.5s1.9.2 1.3.5zm-235.6 2.7c2.1.8 5 1.7 6.6 2 2.5.6 2.7 1 2.7 6.1v5.5l17.8.2 17.7.3v12l-7.2.3c-6 .2-7.3 0-7.3-1.3 0-1.2-1.7-1.5-10.5-1.5H245v-10h-7.5c-7.1 0-7.5-.1-7.5-2.3 0-1.2-.3-4.6-.6-7.5-.8-5.9-.2-6.2 6.3-3.8zm231.2 6.6.2 7H446v10h-11.9c-9.6 0-12 .3-12.5 1.5-.4 1.1-2.3 1.5-8 1.5-8.3 0-8.6-.3-8.6-8.8V540h-18v-12.3l8 .5c4.4.3 8.2.7 8.4.9.4.4 1.5 7.2 1.6 9.6 0 1 4.8 1.3 20.5 1.3H446v-10.7l7.3-.6c4.1-.4 8.5-1.1 9.8-1.6 1.3-.5 2.7-1 3-1 .3-.1.7 3 .8 6.9zm151.9-4.4c3.2.5 3.2.6 3.2 6v5.4l20.8-.2 20.7-.3.3-5.1.3-5.1 7.5-.7c4.1-.4 8.1-.9 8.9-1.3 1.2-.4 1.5.7 1.5 6.1v6.6h-18.9l-.3 6.6-.3 6.6-5.2.4c-5.1.3-11-1.5-9.5-3.1.4-.4-5.2-.5-12.5-.3l-13.2.4-.3-5.1-.3-5-9.5-.3c-6-.2-9.7-.7-10.2-1.5-.4-.7-.8-3.6-.8-6.5V527l7.3.5c3.9.4 8.7.8 10.5 1.1zm160.9 4c-.3.3-2.3.8-4.4 1-3.1.3-3.4.2-1.3-.5 3-1.1 6.6-1.4 5.7-.5zm4.7 3.9c.8 2.2-1 2.6-9.5 2.2l-7.4-.3 8.3-.2c5.4-.1 8.1-.6 7.7-1.2-.4-.6-2.3-.8-4.3-.6-3 .5-3.2.4-1.2-.3 3.9-1.4 5.7-1.2 6.4.4zm37.4 8.7-.3 5.3-9.7-.4c-9.3-.3-9.8-.2-9.8 1.7 0 1.8-.7 2-7.4 1.9h-7.4l-.6-3c-.3-1.6-.6-4.7-.6-6.8V540h36.1l-.3 5.2zm-681 29.4.3 7.1 6.7-.1 6.7-.1v11l-6.7.3-6.8.3V606h-11v-13h-13v-11h13v-6.9c0-7.7.3-8.1 6.5-7.8l4 .2.3 7.1zm794.2.3c0 6.4.1 6.9 2 6.4 1.1-.3 4-.2 6.5.1l4.5.7v10.8l-4.3.6c-2.4.4-5.5.5-6.8.3-2.3-.3-2.4 0-2.7 5.9l-.3 6.3H923v-13h-14v-11h14v-14h12v6.9zm-720.2 7.3.3 12.8H199v8.4c0 9.7.1 9.6-10.7 9.6H182v26h-16v23h-16.9l-.3 15.7-.3 15.8-7.7.3-7.8.3V756h15v15h24v15.1l6.8-.2 6.7-.3.3 6.2.3 6.2H204v4c0 2.2.5 4.1 1 4.1.6.1 1.5.3 2 .4.6.1 6 .3 12 .4l11 .1v14h27v17h24v15h28v14.2l8.4-.4 8.5-.4.6 3.8.7 3.8h21.5l.7 4.6c.3 2.6.6 6 .6 7.5v2.9h38v17h33v16h32v17h33v15h32v15h31.9l.3-7.2.3-7.1 4.5-.2c2.5 0 9.6-.2 15.8-.3l11.2-.2v-15h31.9l.7-7.9c.6-7.8.7-7.9 3.6-8.5 1.7-.3 9.1-.6 16.4-.6H648v-16h33.1l-.3 7.7-.3 7.8-16.3.3-16.4.3.7 3.8c.4 2.2.3 6 0 8.5l-.7 4.6h-32.7l-.3 7.7-.3 7.8-16 .5c-11.8.4-16 .8-16.1 1.7-.1.7-.2 4-.3 7.3l-.1 6h-30.9l-.3 7.2-.3 7.3-16.7.3-16.8.2v-15h-32v-15h-32v-16h-34v-17h-32v-17h-40v-14.9l-10.7-.3-10.8-.3-.3-4.5-.3-4.5h-17.4V868h-28.4l-.7-4.5c-.3-2.5-.4-5.4-.1-6.5.5-1.9 0-2-15.4-2H247v-18H220.3l-.7-3.8c-.3-2-.6-5.8-.6-8.5V820h-9.4c-10.7 0-10.6.1-10.6-9.8V805h-31v-18h-26v-7.5c0-6.4-.2-7.5-1.7-7.6-1-.1-6.3-.2-11.8-.3l-10-.1v-91l7.3-.3 7.2-.3V663h9v-7.5c0-8.3-.8-7.5 7.5-7.9 1.8-.1 2-.9 2.3-9.9l.3-9.7H167v-11.9c0-6.5.3-13.3.6-15l.7-3.1H185l-.3-12.8-.2-12.7 6-.3c3.3-.2 6.3-.9 6.7-1.5.4-.8 3.6-1.2 9-1.2h8.3l.3 12.7zM513 594.5V608h9l-.2 72.7-.3 72.8h-50l-.3-7.4c-.3-6.3-.1-7.3 1.3-6.8 1.3.5 1.5-.6 1.5-7.3v-8h13v-33h7v-14.6l2.8.1h2.7l-.4-47.8-.4-47.7H513v13.5zm56 34.5v48h2.5c2.4 0 2.5.2 2.5 6.9v6.9l3.5.6 3.5.7V724h5.9c5.8 0 5.9.1 6.5 3.1.3 1.7.6 5.3.6 8 0 4.2.3 4.9 2 4.9 1.8 0 2 .7 2 6.4 0 6.3 0 6.4-3.1 7-1.7.3-13.4.6-26 .6H546V608h9v-27h14v48zm304.3 14.4 2.9 5.6h5.3c6.3 0 7.1 1.2 6 9-.7 5.3-.1 6.3 8.3 12.7 3.2 2.5 3.2 2.6 3.2 11.4 0 8.6.1 8.9 2.3 8.9 7.1.1 9.2 4.4 10.3 21.2.6 9.7.8 10.8 2.5 10.8s1.9.9 1.9 9.5v9.5h-18v14h-16v4.9c0 2.9-.5 5.3-1.2 5.8-.7.4-5.2.7-10 .5l-8.8-.2V772.7l-22.7.6c-12.4.4-22.8.5-23.1.3-.2-.3-.5-6.5-.6-13.8l-.1-13.3 8.5-.5 8.5-.5-.3-8.3-.2-8.2h17v-37h16v-6.8c0-3.7.1-17.3.1-30.2l.1-23.5 2.7 3.2c1.4 1.7 3.9 5.6 5.4 8.7zm-671 19.6-.3 29h14v37h15v17h17v27h-20c-11 0-20.3 0-20.7-.1-.5 0-.7-1.4-.5-3l.2-3-10 .3-10 .3V756h-16v-14h-19v-7.9c0-9.2.5-11.1 3-11.1 1.6 0 1.9-1.2 2.5-8.8.3-4.8 1.3-11.7 2.2-15.4 1.6-6.6 1.7-6.7 5.2-7l3.6-.3.5-9.1.5-9.2 5.3-4.1c6.1-4.8 7.2-7.1 7.2-14.7V649h5c4.1 0 5.2-.4 6.3-2.3 5.5-9 8-12.7 8.6-12.7.4 0 .5 13 .4 29zm107.3-21.2c-1 .2-2.2 0-2.8-.6-.6-.6 0-.7 1.9-.4 2.1.5 2.3.7.9 1zm178.6 167.4 25.8 26.6V856h-14v11h-17v22h-23v16h-11.1l.2-7.7.2-7.8-4.9-.2c-2.7-.1-5.5-.2-6.1-.2-.9-.1-1.3-2.2-1.3-7.1v-7h-17v-29.5c0-22.9.3-29.5 1.3-29.6.6-.1 2.4 0 4 .1l2.7.2V802h11.8l-.5-9-.5-9H450v-15.5l6.2 7c3.5 3.9 17.9 19 32 33.7zm130.6-32.7-.5 7.5H629v18h10.9l.3 6.7.3 6.8 4.3.3 4.2.3v58.8l-8.7.3-8.8.3v14h-12l-.3 7.7-.3 7.8H608v-16.2l-11.5.4-11.5.3V867h-17v-11h-14v-20.8l24.3-24.9c13.3-13.6 27.8-28.5 32.1-33.1 4.4-4.5 8.2-8.2 8.4-8.2.3 0 .2 3.4 0 7.5zm-332.8 36v6.5h-15v-13h15v6.5zm511.8.2-.3 6.8h-14l-.3-6.8-.3-6.7h15.2l-.3 6.7z"/><path d="M447.5 217c-.3.5-.1 1 .4 1 .6 0 1.1-.5 1.1-1 0-.6-.2-1-.4-1-.3 0-.8.4-1.1 1zM428.1 219.7c.1 1.7.3 2.1.6 1.1.5-1.9 2.3-2.6 8.8-3.1 2.5-.2 1.4-.4-2.7-.5l-6.8-.2.1 2.7zM806.3 223.7c-.8.3-1.3 2.2-1.3 4.4 0 2.4.4 3.8 1 3.4.6-.3 1 0 1 .8 0 1 .7 1.3 2 1 1.1-.3 1.7-1 1.3-1.7-.4-.6 0-.5.9.2 1.4 1.1 1.6 1 1.4-.5-.1-1-1.2-2.2-2.4-2.8-1.2-.5-2.2-1.9-2.4-3.1-.2-1.1-.9-1.9-1.5-1.7zm.4 3.5c-.3.8-.6.5-.6-.6-.1-1.1.2-1.7.5-1.3.3.3.4 1.2.1 1.9zM590.4 328.4c-.3.8-.4 2.5-.2 3.8.3 1.7.5 1.3.9-1.5.5-3.8.2-4.7-.7-2.3zM240 432v6h12v24h-12v12h12v-12h12v24h24v-12h12v12h12v-12h12v-24h-24v-12h-24v-12h-36v6zM420 432v6h-24v12h-24v24h12v12h12v-12h12v12h24v-24h12v12h12v-12h-12v-24h12v-12h-36v6zM614 432v6h12v24h-12v12h12v-12h12v24h24v-12h12v12h12v-12h12v-24h-24v-12h-24v-12h-36v6zM794 432v6h-24v12h-24v24h12v12h12v-12h12v12h24v-24h12v12h12v-12h-12v-24h12v-12h-36v6zM591.3 519.8c0 1.2.5 2.2.9 2.2 1.1 0 1-1.2-.2-3-.7-1.2-.9-1-.7.8zM441.3 850.8l-8.3.3V866h17.5l-.1-7.5c0-4.1-.3-7.6-.5-7.8-.2-.1-4.1-.1-8.6.1zM625.8 850.8l-7.8.3v5.2c0 9.8.1 9.8 9.4 9.5l8.1-.3v-7.4c0-4.2-.4-7.5-1-7.6-.5 0-4.5.1-8.7.3z"/></svg>