<?xml version="1.0" standalone="no"?>
<!DOCTYPE svg PUBLIC "-//W3C//DTD SVG 20010904//EN"
 "http://www.w3.org/TR/2001/REC-SVG-20010904/DTD/svg10.dtd">
<svg version="1.0" xmlns="http://www.w3.org/2000/svg"
 width="1024.000000pt" height="1024.000000pt" viewBox="0 0 1024.000000 1024.000000"
 preserveAspectRatio="xMidYMid meet">
<metadata>
Created by potrace 1.14, written by Peter Selinger 2001-2017
</metadata>
<g transform="translate(0.000000,1024.000000) scale(0.100000,-0.100000)"
fill="#000000" stroke="none">
<path d="M0 5120 l0 -5120 5120 0 5120 0 0 5120 0 5120 -5120 0 -5120 0 0
-5120z m3860 3555 l0 -45 175 0 175 0 0 -45 0 -44 153 -3 152 -3 -3 -67 -3
-68 111 0 110 0 0 -80 0 -80 75 0 75 0 0 -75 0 -75 70 0 70 0 0 -75 0 -75 55
0 55 0 0 -85 0 -85 65 0 65 0 0 -84 0 -84 78 2 77 1 3 83 3 82 59 0 60 0 0 85
0 85 60 0 60 0 0 75 0 75 70 0 70 0 0 75 0 75 75 0 75 0 0 80 0 80 105 0 105
0 0 70 0 70 155 0 155 0 0 48 0 47 170 -3 170 -3 0 46 0 45 365 0 365 0 0 -45
0 -45 134 0 134 0 6 -45 7 -45 220 0 219 0 0 -70 0 -70 120 0 120 0 0 -80 0
-80 90 0 90 0 0 -150 0 -150 -70 0 -70 0 0 80 0 80 -85 0 -85 0 0 75 0 75
-115 0 c-85 0 -115 3 -116 13 -1 6 -2 19 -3 27 -2 8 -3 34 -4 58 l-2 42 -230
0 -230 0 0 55 0 55 -124 0 -125 0 -3 38 -3 37 -245 -3 -245 -3 -3 -34 -3 -35
-150 0 -149 0 0 -55 0 -55 -154 0 -153 0 -7 -31 c-3 -17 -6 -49 -6 -70 l0 -39
-110 0 -110 0 0 -75 0 -75 -80 0 -80 0 0 -80 0 -80 -60 0 -60 0 0 -75 0 -75
-60 0 -60 0 0 -85 0 -85 -70 0 -69 0 -3 -82 -3 -83 -67 -3 -68 -3 0 -114 0
-115 -65 0 -65 0 0 119 0 118 -67 -1 -68 -1 0 83 0 82 -67 0 -68 0 0 85 0 85
-66 0 -67 0 6 75 7 75 -67 0 -66 0 7 80 6 80 -80 0 -80 0 0 75 0 75 -110 0
-110 0 -1 58 c-1 31 -1 63 0 70 1 9 -37 12 -164 12 l-165 0 0 55 0 55 -144 0
-145 0 -3 36 -3 35 -252 2 -252 2 -3 -35 -3 -35 -147 -3 -148 -3 0 -54 0 -55
-190 0 -190 0 0 -70 0 -70 -135 0 -134 0 -3 -72 -3 -73 -71 -3 -72 -3 -6 -37
c-3 -20 -6 -56 -6 -79 l0 -43 -75 0 -75 0 0 150 0 150 95 0 95 0 0 80 0 80
134 0 c133 0 135 0 134 23 -1 12 -1 43 0 70 l2 47 170 0 170 0 0 45 0 45 155
0 155 0 0 45 0 45 380 0 380 0 0 -45z m1518 -90 l3 -71 68 4 68 4 6 -34 c3
-18 3 -46 0 -61 -5 -25 -9 -27 -57 -29 -28 0 -59 -1 -68 0 -15 2 -18 -7 -18
-62 l0 -63 -37 -7 c-84 -13 -83 -14 -83 64 l0 70 -75 0 -75 0 0 55 0 55 75 0
75 0 0 69 c0 78 3 81 70 78 l45 -2 3 -70z m-1508 -305 l0 -71 193 1 192 2 3
-66 3 -66 -116 0 -115 0 0 -180 0 -180 -85 0 -85 0 0 240 0 240 -180 0 -180 0
-1 -252 c0 -139 -2 -248 -5 -243 -2 6 -38 9 -84 8 l-80 -3 0 245 0 245 -177 2
-178 3 -3 73 -3 72 451 0 450 0 0 -70z m3780 0 l0 -71 174 3 175 3 5 -29 c3
-16 6 -46 6 -67 l0 -39 -97 0 -98 0 3 -180 3 -180 -86 0 -85 0 0 240 0 240
-147 0 -148 0 3 -239 4 -239 -87 -4 c-48 -2 -89 -1 -91 1 -2 2 -4 111 -4 242
l0 238 -175 3 -175 3 0 -242 0 -243 -90 0 -90 0 0 180 0 180 -115 0 -115 0 0
28 c0 15 3 44 6 65 l7 37 188 0 189 0 0 70 0 70 420 0 420 0 0 -70z m-4680
-315 l0 -245 -80 0 -80 0 -2 133 c0 72 0 153 1 180 l2 47 -100 0 -101 0 0 58
c0 32 3 62 7 65 3 4 84 7 180 7 l173 0 0 -245z m-368 45 c-1 -41 -5 -86 -8
-100 -6 -23 -7 -24 -14 -5 -6 13 -9 15 -9 5 -1 -12 -11 -14 -48 -11 -44 4 -46
5 -18 12 l30 7 -27 1 c-22 1 -28 6 -28 23 0 36 -10 14 -12 -26 -1 -23 -6 -36
-15 -36 -7 0 -12 3 -11 8 1 4 -1 46 -6 95 -4 48 -4 92 -1 97 4 7 40 10 88 8
l82 -3 -3 -75z m1898 43 c0 -32 -2 -35 -13 -19 -12 16 -13 16 -14 -5 -3 -34
-20 -39 -113 -37 l-85 3 -3 48 -3 47 115 0 116 0 0 -37z m1908 -10 l-3 -48
-93 -5 -92 -5 0 37 c0 20 -3 43 -6 52 -5 14 7 16 95 16 l102 0 -3 -47z m1902
-3 l0 -50 -77 -1 c-43 0 -72 -3 -65 -6 15 -6 16 -43 2 -43 -12 0 -10 -32 2
-40 4 -3 -9 -6 -30 -6 -20 -1 -47 -4 -58 -8 -24 -8 -32 6 -44 79 l-7 40 -2
-45 c-3 -38 -4 -41 -11 -20 -10 31 -12 134 -3 143 3 4 71 7 150 7 l143 0 0
-50z m-6322 -174 c2 -32 -1 -63 -7 -69 -5 -5 -39 -12 -75 -14 l-66 -6 0 -183
0 -184 -56 0 -56 0 7 -199 8 -199 -31 -7 c-17 -3 -57 -5 -89 -4 l-58 3 -3
-627 -2 -627 85 0 85 0 0 -290 0 -290 55 0 54 0 3 -157 3 -158 73 -3 72 -3 0
-124 c0 -68 -3 -130 -6 -139 -5 -13 -22 -16 -80 -16 l-74 0 0 140 0 140 -70 0
-70 0 0 154 c0 171 2 166 -71 166 l-39 0 0 230 0 230 -80 0 -80 0 0 755 0 754
83 3 82 3 -3 126 c-3 141 -5 139 75 139 l33 0 -7 260 -6 261 154 -3 154 -3 3
-59z m6983 -198 l-3 -258 56 0 55 0 3 -132 3 -133 78 -3 77 -3 0 -754 0 -755
-75 0 -75 0 0 -230 0 -230 -42 -2 c-24 0 -51 -1 -60 0 -16 2 -18 -12 -18 -158
l0 -160 -65 0 -65 0 0 -140 0 -140 -59 0 c-72 0 -91 -6 -91 -31 0 -16 8 -19
48 -19 91 0 87 6 84 -135 l-3 -125 84 0 84 0 7 -52 c3 -29 6 -97 6 -150 l0
-98 80 0 80 0 0 -95 0 -95 28 0 c68 0 72 -6 72 -86 l0 -74 50 0 50 0 0 -85 0
-85 75 0 75 0 0 -454 c0 -419 -1 -454 -17 -460 -10 -4 -67 -6 -128 -5 l-110 2
-3 -77 -3 -76 -124 0 c-93 0 -125 -3 -125 -12 -2 -86 -7 -158 -10 -162 -3 -2
-73 -6 -155 -8 l-150 -3 -3 -72 -3 -72 -102 -3 -102 -3 -3 -82 -3 -83 -134 0
-134 0 -3 -87 -3 -88 -147 -3 -148 -3 0 -52 c0 -28 -4 -57 -8 -64 -5 -9 -50
-13 -142 -15 l-135 -3 -3 -62 -3 -63 -88 0 -89 0 -6 -45 -7 -45 -110 0 -109 0
0 -75 0 -74 -185 -3 c-102 -2 -190 -1 -195 0 -6 2 -10 39 -10 83 l0 79 190 0
190 0 0 75 0 74 113 3 112 3 3 33 3 32 85 0 84 0 0 70 0 70 140 0 140 0 0 75
0 75 130 0 130 0 0 85 0 85 124 0 124 0 6 31 c3 17 6 49 6 70 l0 38 128 3 127
3 3 43 3 42 85 0 84 0 0 64 0 65 70 -6 70 -6 0 77 0 76 126 0 c121 0 125 1
119 20 -4 11 -3 45 0 75 l7 55 74 0 74 0 0 310 0 310 -80 0 -80 0 0 160 0 160
-85 0 -85 0 0 115 0 115 -90 0 -90 0 0 130 0 130 -75 1 c-41 1 -81 2 -87 3 -9
1 -14 28 -16 89 l-3 87 -69 0 -70 0 0 125 0 124 35 7 c19 3 48 4 63 1 58 -11
62 -1 62 158 l0 145 65 0 65 0 0 160 0 160 60 0 60 0 0 290 0 290 75 0 75 0 0
625 0 624 -77 3 -78 3 0 203 0 202 -52 0 c-43 0 -53 3 -55 18 0 9 -2 94 -2
187 l-1 170 -67 3 -68 3 0 70 0 70 143 -3 142 -3 -4 -257z m-6553 165 l-3 -78
-67 -3 c-61 -3 -68 -1 -68 16 0 11 -3 47 -6 81 l-7 61 77 0 77 0 -3 -77z
m5628 59 c1 -7 0 -8 -3 -2 -2 5 -9 8 -14 4 -5 -3 -9 0 -9 6 0 15 23 7 26 -8z
m-3366 -74 l0 -68 -60 0 c-40 0 -62 4 -65 13 -6 17 -13 115 -9 119 2 2 33 4
69 3 l65 0 0 -67z m1460 3 c0 -38 -4 -61 -12 -64 -7 -2 -39 -2 -70 1 l-58 4 0
59 0 59 70 0 70 0 0 -59z m-2643 -193 c-2 -13 -4 -5 -4 17 -1 22 1 32 4 23 2
-10 2 -28 0 -40z m-59 -15 c-10 -2 -26 -2 -35 0 -10 3 -2 5 17 5 19 0 27 -2
18 -5z m3835 0 c-7 -2 -21 -2 -30 0 -10 3 -4 5 12 5 17 0 24 -2 18 -5z m-6153
-173 l0 -70 65 0 65 0 0 -54 c0 -52 -1 -54 -31 -60 -17 -3 -47 -6 -65 -6 l-34
0 0 -60 0 -60 -60 0 -59 0 -3 63 -3 62 -65 1 -65 1 0 54 0 54 68 3 67 3 0 69
0 70 60 0 60 0 0 -70z m8560 0 l0 -70 60 0 60 0 0 -54 c0 -52 -1 -54 -31 -60
-17 -3 -44 -6 -60 -6 -27 0 -29 -3 -30 -40 -1 -22 -3 -44 -4 -50 -1 -5 -3 -14
-4 -20 0 -5 -26 -10 -56 -10 l-55 0 0 60 0 60 -70 0 -70 0 0 60 0 60 70 0 70
0 0 70 0 70 60 0 60 0 0 -70z m-6180 -440 l0 -290 -105 0 -105 0 0 225 0 225
-135 0 -135 0 -2 -222 -3 -223 -105 -3 -105 -2 -3 290 -4 290 351 0 351 0 0
-290z m538 218 l3 -67 72 -4 72 -3 -77 -2 -78 -2 0 -215 0 -215 -90 0 -90 0 0
290 0 291 93 -3 92 -3 3 -67z m2797 -215 l0 -288 -93 -3 -92 -3 0 291 0 290
93 0 92 0 0 -287z m995 217 l0 -70 68 -2 67 -2 -67 -3 -68 -4 -2 -212 -3 -212
-87 -3 -88 -3 0 226 0 225 -140 0 -140 0 -2 -222 -3 -223 -92 -3 -93 -3 0 291
0 290 325 0 325 0 0 -70z m-1287 -87 c-13 -2 -35 -2 -50 0 -16 2 -5 4 22 4 28
0 40 -2 28 -4z m-4063 -213 l0 -210 -85 0 -85 0 0 210 0 210 85 0 85 0 0 -210z
m1904 2 l-1 -207 -66 -3 -67 -3 0 211 0 210 68 0 67 0 -1 -208z m2046 -2 l0
-210 -65 0 -65 0 0 210 0 210 65 0 65 0 0 -210z m1740 46 c0 -90 3 -184 6
-210 l7 -46 -84 0 -84 0 0 210 0 210 78 0 77 0 0 -164z m-3370 -121 l0 -135
-72 0 -73 0 -3 135 -3 135 75 0 76 0 0 -135z m1210 115 c18 -18 20 -33 20
-135 l0 -115 -75 0 -75 0 0 135 0 135 55 0 c42 0 60 -5 75 -20z m20 10 c0 -5
-4 -10 -10 -10 -5 0 -10 5 -10 10 0 6 5 10 10 10 6 0 10 -4 10 -10z m-3900
-129 c0 -125 -1 -129 -22 -135 -13 -3 -33 -6 -45 -6 -21 0 -22 4 -25 135 l-3
135 48 0 47 0 0 -129z m6435 37 c4 -51 5 -111 3 -133 l-3 -40 -47 0 c-27 0
-48 3 -48 8 0 4 0 63 0 132 l0 125 44 0 44 0 7 -92z m-5917 -605 c-42 -2 -114
-2 -160 0 -46 1 -11 3 77 3 88 0 125 -2 83 -3z m895 0 c-35 -2 -91 -2 -125 0
-35 2 -7 3 62 3 69 0 97 -1 63 -3z m280 0 c-13 -2 -33 -2 -45 0 -13 2 -3 4 22
4 25 0 35 -2 23 -4z m610 0 c-78 -2 -208 -2 -290 0 -81 1 -17 3 142 3 160 0
226 -2 148 -3z m1845 0 c-27 -2 -69 -2 -95 0 -27 2 -5 3 47 3 52 0 74 -1 48
-3z m435 0 c-56 -2 -151 -2 -210 0 -59 1 -13 3 102 3 116 0 164 -2 108 -3z
m310 0 c-13 -2 -33 -2 -45 0 -13 2 -3 4 22 4 25 0 35 -2 23 -4z m320 0 c-40
-2 -107 -2 -150 0 -43 1 -10 3 72 3 83 0 118 -2 78 -3z m480 0 c-13 -2 -33 -2
-45 0 -13 2 -3 4 22 4 25 0 35 -2 23 -4z m460 0 c-13 -2 -33 -2 -45 0 -13 2
-3 4 22 4 25 0 35 -2 23 -4z m-5768 -63 c4 -6 3 -10 -2 -9 -32 5 -30 -5 2 -14
54 -14 2197 -21 2175 -7 -10 7 4 8 45 4 71 -7 85 -14 27 -14 l-42 0 0 -55 0
-55 55 0 56 0 -3 -132 -3 -133 -47 -3 -48 -3 0 -152 c0 -84 -3 -169 -6 -189
-6 -37 -8 -38 -50 -38 l-44 0 0 -100 0 -100 -64 0 c-70 0 -76 -6 -76 -77 l0
-33 -266 0 -267 0 7 50 7 50 -516 0 -515 0 0 -50 0 -50 -235 0 -235 0 0 55 0
55 -51 0 -51 0 7 55 6 55 -40 0 -41 0 0 70 0 70 -41 0 -41 0 4 170 3 170 -47
0 -48 0 0 130 0 130 55 0 55 0 0 55 0 55 -50 0 c-37 0 -48 3 -44 13 3 10 18
12 54 7 33 -4 50 -3 50 4 0 6 5 3 11 -6 14 -24 149 -27 149 -3 0 18 12 19 28
3 9 -9 16 -7 32 10 23 24 35 27 45 12z m3507 -22 c-9 -9 -15 -9 -24 1 -9 10
-9 12 -1 7 6 -3 15 -1 18 5 4 5 10 8 13 4 3 -3 0 -11 -6 -17z m-3722 2 c0 -5
-7 -10 -15 -10 -8 0 -15 5 -15 10 0 6 7 10 15 10 8 0 15 -4 15 -10z m5965 -11
c10 -10 118 -12 154 -2 23 6 23 7 5 14 -15 6 -12 8 14 8 17 1 32 -3 32 -8 0
-5 10 -7 23 -4 18 4 19 3 7 -6 -8 -6 -23 -11 -32 -11 -15 0 -18 -9 -18 -55 l0
-55 55 0 56 0 -3 -132 -3 -133 -44 -5 -44 -5 2 -162 2 -163 -40 0 -41 0 0 -69
0 -70 -37 -3 -38 -3 -3 -52 -3 -53 -38 0 c-44 0 -51 -10 -51 -71 l0 -39 -239
0 c-132 0 -246 3 -255 6 -9 3 -16 16 -16 28 0 11 -3 31 -6 44 l-6 22 -489 0
-489 0 0 -44 c0 -31 -5 -46 -16 -50 -9 -3 -126 -6 -260 -6 l-244 0 0 55 0 55
-70 0 -70 0 0 100 0 100 -50 0 -50 0 0 195 0 195 -50 0 -50 0 0 130 0 130 55
0 55 0 0 55 0 55 -42 1 c-24 1 -46 1 -50 0 -5 0 -8 4 -8 10 0 7 9 9 23 5 48
-13 316 -19 330 -7 10 8 22 8 40 2 17 -7 374 -10 961 -10 804 -1 938 1 963 14
27 14 58 12 78 -6z m285 1 c0 -5 -4 -10 -9 -10 -6 0 -13 5 -16 10 -3 6 1 10 9
10 9 0 16 -4 16 -10z m-7220 -990 l0 -70 70 0 70 0 0 -60 0 -60 -70 0 -70 0 0
-65 0 -65 -57 0 -58 0 3 65 4 65 -71 0 -71 0 0 60 0 60 69 0 c69 0 69 0 68 28
-1 15 0 46 1 70 l2 42 55 0 55 0 0 -70z m8110 0 l0 -70 65 0 65 0 0 -60 0 -60
-65 0 -65 0 0 -65 0 -65 -60 0 -60 0 0 65 0 64 -67 3 -68 3 0 55 0 55 70 3 71
3 -4 69 -4 70 61 0 61 0 0 -70z m-5775 -54 c1 0 -1 -29 -3 -64 l-4 -64 -74 4
-74 3 0 -237 c0 -152 -4 -238 -10 -238 -6 0 -10 87 -10 240 l0 240 -130 0
-130 0 0 60 0 59 113 3 c93 3 321 -2 322 -6z m3785 -53 l0 -63 -87 -1 c-63 0
-82 -3 -65 -9 22 -9 22 -10 22 -240 l0 -230 -70 0 -70 0 0 235 0 234 -77 3
-78 3 -3 54 c-2 29 -1 59 1 65 3 8 70 11 216 12 l211 0 0 -63z m-5161 -8 c-2
-30 -7 -45 -16 -45 -8 0 -12 4 -9 8 3 5 8 23 11 40 4 26 2 31 -15 29 -19 -1
-29 -17 -11 -17 5 0 9 -11 9 -24 0 -22 -4 -24 -32 -20 -17 2 -25 2 -18 -2 6
-3 10 -10 6 -15 -3 -5 2 -9 11 -9 10 0 14 5 10 13 -4 6 -1 5 7 -3 7 -9 21 -14
32 -12 11 2 16 0 12 -7 -4 -6 -34 -11 -67 -11 l-59 0 0 60 0 60 65 0 66 0 -2
-45z m3612 28 c0 -15 2 -15 9 2 l9 20 1 -20 c1 -15 3 -17 8 -5 9 19 34 19 46
0 8 -12 11 -11 17 5 5 13 8 -3 8 -42 l1 -63 -54 0 c-52 0 -54 1 -60 31 -9 47
-7 89 4 89 6 0 10 -8 11 -17z m-1214 -65 c-3 -8 -6 -5 -6 6 -1 11 2 17 5 13 3
-3 4 -12 1 -19z m3830 -20 c-3 -8 -6 -5 -6 6 -1 11 2 17 5 13 3 -3 4 -12 1
-19z m-5297 -46 l0 -47 -84 0 -84 0 -4 42 c-4 50 -3 50 100 52 l72 1 0 -48z
m4408 -2 l3 -45 -88 5 -87 5 1 30 c0 17 1 35 2 40 0 6 36 10 84 10 l82 0 3
-45z m787 40 c3 -5 1 -10 -4 -10 -6 0 -11 -21 -11 -49 0 -27 -3 -63 -6 -80
l-6 -31 -79 0 -79 0 0 53 0 54 83 26 c45 14 81 30 80 36 -4 14 14 14 22 1z
m-3702 -7 c-7 -2 -19 -2 -25 0 -7 3 -2 5 12 5 14 0 19 -2 13 -5z m-2356 -27
c21 -8 50 -17 66 -20 25 -6 27 -10 27 -61 l0 -55 178 -2 177 -3 0 -60 0 -60
-72 -3 c-60 -2 -73 0 -73 13 0 12 -17 15 -105 15 l-105 0 0 50 0 50 -75 0
c-71 0 -75 1 -75 23 0 12 -3 46 -6 75 -8 59 -2 62 63 38z m2312 -66 l2 -70
-105 0 -106 0 0 -50 0 -50 -119 0 c-96 0 -120 -3 -125 -15 -4 -11 -23 -15 -80
-15 -83 0 -86 3 -86 88 l0 42 -90 0 -90 0 0 61 0 62 80 -5 c44 -3 82 -7 84 -9
4 -4 15 -72 16 -96 0 -10 48 -13 205 -13 l205 0 0 54 0 53 73 6 c41 4 85 11
98 16 13 5 27 10 30 10 3 1 7 -30 8 -69z m1519 44 c32 -5 32 -6 32 -60 l0 -54
208 2 207 3 3 51 3 51 75 7 c41 4 81 9 89 13 12 4 15 -7 15 -61 l0 -66 -95 0
-94 0 -3 -66 -3 -66 -52 -4 c-51 -3 -110 15 -95 31 4 4 -52 5 -125 3 l-132 -4
-3 51 -3 50 -95 3 c-60 2 -97 7 -102 15 -4 7 -8 36 -8 65 l0 52 73 -5 c39 -4
87 -8 105 -11z m1609 -40 c-3 -3 -23 -8 -44 -10 -31 -3 -34 -2 -13 5 30 11 66
14 57 5z m47 -39 c8 -22 -10 -26 -95 -22 l-74 3 83 2 c54 1 81 6 77 12 -4 6
-23 8 -43 6 -30 -5 -32 -4 -12 3 39 14 57 12 64 -4z m374 -87 l-3 -53 -97 4
c-93 3 -98 2 -98 -17 0 -18 -7 -20 -74 -19 l-74 0 -6 30 c-3 16 -6 47 -6 68
l0 39 181 0 180 0 -3 -52z m-6810 -294 l3 -71 67 1 67 1 0 -55 0 -55 -67 -3
-68 -3 0 -64 0 -65 -55 0 -55 0 0 65 0 65 -65 0 -65 0 0 55 0 55 65 0 65 0 0
69 c0 77 3 81 65 78 l40 -2 3 -71z m7942 -3 c0 -64 1 -69 20 -64 11 3 40 2 65
-1 l45 -7 0 -54 0 -54 -43 -6 c-24 -4 -55 -5 -68 -3 -23 3 -24 0 -27 -59 l-3
-63 -54 0 -55 0 0 65 0 65 -70 0 -70 0 0 55 0 55 70 0 70 0 0 70 0 70 60 0 60
0 0 -69z m-7202 -73 l3 -128 -81 0 -80 0 0 -84 c0 -97 1 -96 -107 -96 l-63 0
0 -130 0 -130 -80 0 -80 0 0 -115 0 -115 -85 0 -84 0 -3 -157 -3 -158 -77 -3
-78 -3 0 -309 0 -310 75 0 75 0 0 -75 0 -75 120 0 120 0 0 -76 0 -75 68 2 67
3 3 -62 3 -62 89 0 90 0 0 -40 c0 -22 5 -41 10 -41 6 -1 15 -3 20 -4 6 -1 60
-3 120 -4 l110 -1 0 -70 0 -70 135 0 135 0 0 -85 0 -85 120 0 120 0 0 -75 0
-75 140 0 140 0 0 -71 0 -71 84 4 85 4 6 -38 7 -38 108 0 107 0 7 -46 c3 -26
6 -60 6 -75 l0 -29 190 0 190 0 0 -85 0 -85 165 0 165 0 0 -80 0 -80 160 0
160 0 0 -85 0 -85 165 0 165 0 0 -75 0 -75 160 0 160 0 0 -75 0 -75 160 0 159
0 3 72 3 71 45 2 c25 0 96 2 158 3 l112 2 0 75 0 75 159 0 160 0 7 79 c6 78 7
79 36 85 17 3 91 6 164 6 l134 0 0 80 0 80 165 0 166 0 -3 -77 -3 -78 -163 -3
-164 -3 7 -38 c4 -22 3 -60 0 -85 l-7 -46 -164 0 -163 0 -3 -77 -3 -78 -160
-5 c-118 -4 -160 -8 -161 -17 -1 -7 -2 -40 -3 -73 l-1 -60 -155 0 -154 0 -3
-72 -3 -73 -167 -3 -168 -2 0 75 0 75 -160 0 -160 0 0 75 0 75 -160 0 -160 0
0 80 0 80 -170 0 -170 0 0 85 0 85 -160 0 -160 0 0 85 0 85 -200 0 -200 0 0
75 0 74 -107 3 -108 3 -3 45 -3 45 -87 0 -87 0 0 63 0 62 -142 0 -142 0 -7 45
c-3 25 -4 54 -1 65 5 19 0 20 -154 20 l-159 0 0 90 0 90 -134 0 -133 0 -7 38
c-3 20 -6 58 -6 85 l0 47 -94 0 c-107 0 -106 -1 -106 98 l0 52 -155 0 -155 0
0 90 0 90 -130 0 -130 0 0 75 c0 64 -2 75 -17 76 -10 1 -63 2 -118 3 l-100 1
0 455 0 455 73 3 72 3 0 84 0 85 45 0 45 0 0 75 c0 83 -8 75 75 79 18 1 20 9
23 99 l3 97 74 0 75 0 0 119 c0 65 3 133 6 150 l7 31 83 0 84 0 -3 128 -2 127
60 3 c33 2 63 9 67 15 4 8 36 12 90 12 l83 0 3 -127z m2982 -123 l0 -135 45 0
45 0 -2 -727 -3 -728 -250 0 -250 0 -3 74 c-3 63 -1 73 13 68 13 -5 15 6 15
73 l0 80 65 0 65 0 0 165 0 165 35 0 35 0 0 73 0 73 28 -1 27 0 -4 478 -4 477
71 0 72 0 0 -135z m560 -345 l0 -480 25 0 c24 0 25 -2 25 -69 l0 -69 35 -6 35
-7 0 -159 0 -160 59 0 c58 0 59 -1 65 -31 3 -17 6 -53 6 -80 0 -42 3 -49 20
-49 18 0 20 -7 20 -64 0 -63 0 -64 -31 -70 -17 -3 -134 -6 -260 -6 l-229 0 0
730 0 730 45 0 45 0 0 135 0 135 70 0 70 0 0 -480z m3043 -144 l29 -56 53 0
c63 0 71 -12 60 -90 -7 -53 -1 -63 83 -127 32 -25 32 -26 32 -114 0 -86 1 -89
23 -89 71 -1 92 -44 103 -212 6 -97 8 -108 25 -108 17 0 19 -9 19 -95 l0 -95
-90 0 -90 0 0 -70 0 -70 -80 0 -80 0 0 -49 c0 -29 -5 -53 -12 -58 -7 -4 -52
-7 -100 -5 l-88 2 0 -28 0 -29 -227 -6 c-124 -4 -228 -5 -231 -3 -2 3 -5 65
-6 138 l-1 133 85 5 85 5 -3 83 -2 82 85 0 85 0 0 185 0 185 80 0 80 0 0 68
c0 37 1 173 1 302 l1 235 27 -32 c14 -17 39 -56 54 -87z m-6710 -196 l-3 -290
70 0 70 0 0 -185 0 -185 75 0 75 0 0 -85 0 -85 85 0 85 0 0 -135 0 -135 -200
0 c-110 0 -203 0 -207 1 -5 0 -7 14 -5 30 l2 30 -100 -3 -100 -3 0 58 0 57
-80 0 -80 0 0 70 0 70 -95 0 -95 0 0 79 c0 92 5 111 30 111 16 0 19 12 25 88
3 48 13 117 22 154 16 66 17 67 52 70 l36 3 5 91 5 92 53 41 c61 48 72 71 72
147 l0 54 50 0 c41 0 52 4 63 23 55 90 80 127 86 127 4 0 5 -130 4 -290z
m1073 212 c-10 -2 -22 0 -28 6 -6 6 0 7 19 4 21 -5 23 -7 9 -10z m1786 -1674
l258 -266 0 -101 0 -101 -70 0 -70 0 0 -55 0 -55 -85 0 -85 0 0 -110 0 -110
-115 0 -115 0 0 -80 0 -80 -56 0 -55 0 2 77 2 78 -49 2 c-27 1 -55 2 -61 2 -9
1 -13 22 -13 71 l0 70 -85 0 -85 0 0 295 c0 229 3 295 13 296 6 1 24 0 40 -1
l27 -2 0 71 0 71 59 0 59 0 -5 90 -5 90 56 0 56 0 0 77 0 78 62 -70 c35 -39
179 -190 320 -337z m1306 327 l-5 -75 54 0 53 0 0 -90 0 -90 55 0 54 0 3 -67
3 -68 43 -3 42 -3 0 -294 0 -294 -87 -3 -88 -3 0 -70 0 -70 -60 0 -60 0 -3
-77 -3 -78 -54 0 -55 0 0 81 0 81 -115 -4 -115 -3 0 113 0 112 -85 0 -85 0 0
55 0 55 -70 0 -70 0 0 104 0 104 243 249 c133 136 278 285 321 331 44 45 82
82 84 82 3 0 2 -34 0 -75z m-3328 -360 l0 -65 -75 0 -75 0 0 65 0 65 75 0 75
0 0 -65z m5118 -2 l-3 -68 -70 0 -70 0 -3 68 -3 67 76 0 76 0 -3 -67z"/>
<path d="M4475 8070 c-3 -5 -1 -10 4 -10 6 0 11 5 11 10 0 6 -2 10 -4 10 -3 0
-8 -4 -11 -10z"/>
<path d="M4281 8043 c1 -17 3 -21 6 -11 5 19 23 26 88 31 25 2 14 4 -27 5
l-68 2 1 -27z"/>
<path d="M8063 8003 c-8 -3 -13 -22 -13 -44 0 -24 4 -38 10 -34 6 3 10 0 10
-8 0 -10 7 -13 20 -10 11 3 17 10 13 17 -4 6 0 5 9 -2 14 -11 16 -10 14 5 -1
10 -12 22 -24 28 -12 5 -22 19 -24 31 -2 11 -9 19 -15 17z m4 -35 c-3 -8 -6
-5 -6 6 -1 11 2 17 5 13 3 -3 4 -12 1 -19z"/>
<path d="M5904 6956 c-3 -8 -4 -25 -2 -38 3 -17 5 -13 9 15 5 38 2 47 -7 23z"/>
<path d="M2400 5920 l0 -60 60 0 60 0 0 -120 0 -120 -60 0 -60 0 0 -60 0 -60
60 0 60 0 0 60 0 60 60 0 60 0 0 -120 0 -120 120 0 120 0 0 60 0 60 60 0 60 0
0 -60 0 -60 60 0 60 0 0 60 0 60 60 0 60 0 0 120 0 120 -120 0 -120 0 0 60 0
60 -120 0 -120 0 0 60 0 60 -180 0 -180 0 0 -60z"/>
<path d="M4200 5920 l0 -60 -120 0 -120 0 0 -60 0 -60 -120 0 -120 0 0 -120 0
-120 60 0 60 0 0 -60 0 -60 60 0 60 0 0 60 0 60 60 0 60 0 0 -60 0 -60 120 0
120 0 0 120 0 120 60 0 60 0 0 -60 0 -60 60 0 60 0 0 60 0 60 -60 0 -60 0 0
120 0 120 60 0 60 0 0 60 0 60 -180 0 -180 0 0 -60z"/>
<path d="M6140 5920 l0 -60 60 0 60 0 0 -120 0 -120 -60 0 -60 0 0 -60 0 -60
60 0 60 0 0 60 0 60 60 0 60 0 0 -120 0 -120 120 0 120 0 0 60 0 60 60 0 60 0
0 -60 0 -60 60 0 60 0 0 60 0 60 60 0 60 0 0 120 0 120 -120 0 -120 0 0 60 0
60 -120 0 -120 0 0 60 0 60 -180 0 -180 0 0 -60z"/>
<path d="M7940 5920 l0 -60 -120 0 -120 0 0 -60 0 -60 -120 0 -120 0 0 -120 0
-120 60 0 60 0 0 -60 0 -60 60 0 60 0 0 60 0 60 60 0 60 0 0 -60 0 -60 120 0
120 0 0 120 0 120 60 0 60 0 0 -60 0 -60 60 0 60 0 0 60 0 60 -60 0 -60 0 0
120 0 120 60 0 60 0 0 60 0 60 -180 0 -180 0 0 -60z"/>
<path d="M5913 5042 c0 -12 5 -22 9 -22 11 0 10 12 -2 30 -7 12 -9 10 -7 -8z"/>
<path d="M4413 1732 l-83 -3 0 -74 0 -75 88 0 87 0 -1 75 c0 41 -3 76 -5 78
-2 1 -41 1 -86 -1z"/>
<path d="M6258 1732 l-78 -3 0 -52 c0 -98 1 -98 94 -95 l81 3 0 74 c0 42 -4
75 -10 76 -5 0 -45 -1 -87 -3z"/>
</g>
</svg>
